<?xml version="1.0" encoding="utf-8"?>
<!-- Generator: Adobe Illustrator 16.0.0, SVG Export Plug-In . SVG Version: 6.00 Build 0)  -->
<!DOCTYPE svg PUBLIC "-//W3C//DTD SVG 1.1//EN" "http://www.w3.org/Graphics/SVG/1.1/DTD/svg11.dtd">
<svg version="1.1" id="Layer_1" xmlns="http://www.w3.org/2000/svg" xmlns:xlink="http://www.w3.org/1999/xlink" x="0px" y="0px"
	 width="960px" height="293px" viewBox="0 0 960 293" enable-background="new 0 0 960 293" xml:space="preserve">
<g>
	<g>
		<path fill="#FFFFFF" d="M132.089,35.234H45.596v54.191h72.611v29.365H45.596v81.955H12.227V4.535h119.862V35.234z"/>
		<path fill="#FFFFFF" d="M336.037,103.04c0,58.462-43.246,101.175-100.908,101.175c-57.929,0-100.641-42.712-100.641-101.175
			c0-58.997,42.712-101.976,100.641-101.976C292.791,1.064,336.037,44.043,336.037,103.04z M175.598,103.04
			c0,37.374,24.56,64.068,59.531,64.068c34.971,0,59.53-26.695,59.53-64.068c0-37.907-24.56-64.87-59.53-64.87
			C200.158,38.17,175.598,65.133,175.598,103.04z"/>
		<path fill="#FFFFFF" d="M501.276,130.269c0,44.581-26.161,73.946-75.547,73.946s-75.547-29.365-75.547-73.946V4.535h40.844V127.6
			c0,23.492,11.479,39.509,34.704,39.509c22.958,0,34.971-16.017,34.971-39.509V4.535h40.576V130.269z"/>
		<path fill="#FFFFFF" d="M673.723,68.069c0,27.496-14.95,46.983-36.039,56.594l45.648,76.082h-47.518l-41.11-69.141h-26.962v69.141
			h-40.577V4.535h76.883C641.688,4.535,673.723,27.493,673.723,68.069z M567.742,39.772v56.594h32.568
			c19.221,0,32.034-9.877,32.034-28.297c0-18.153-12.813-28.297-32.034-28.297H567.742z"/>
	</g>
	<g>
		<path fill="#FFFFFF" d="M806.168,200.745h-32.302V57.658l-32.034,18.153L727.95,46.713L805.1,1.064h1.068V200.745z"/>
		<path fill="#FFFFFF" d="M955.659,66.201c0,15.216-4.538,28.564-12.547,39.242l-0.267,0.534l-60.865,94.768h-36.572l44.581-69.141
			c-36.306,0-65.938-27.496-65.938-65.403c0-38.174,29.898-65.137,66.204-65.137C926.027,1.064,955.659,28.026,955.659,66.201z
			 M857.153,66.201c0,21.89,14.416,36.572,33.103,36.572c18.42,0,32.568-14.682,32.568-36.572s-14.148-36.306-32.568-36.306
			C871.569,29.895,857.153,44.311,857.153,66.201z"/>
	</g>
	<g>
		<path fill="#FFFFFF" d="M51.853,289.37h-5.696l-5.205-12.097H16.196l-5.204,12.097H5.295l23.138-52.605h0.281L51.853,289.37z
			 M18.236,272.491h20.676L28.574,248.65L18.236,272.491z"/>
		<path fill="#FFFFFF" d="M214.516,244.149l-3.446,3.868c-3.587-3.728-8.58-6.259-14.628-6.259
			c-12.026,0-20.396,9.213-20.396,21.801c0,12.589,8.65,21.731,21.099,21.731c5.274,0,9.846-1.547,13.292-4.22V267.85H196.23v-4.712
			h19.551v20.606c-4.712,4.22-11.112,6.54-18.637,6.54c-15.472,0-26.443-11.322-26.443-26.725c0-15.401,10.69-26.794,25.74-26.794
			C203.966,236.765,209.803,239.438,214.516,244.149z"/>
		<path fill="#FFFFFF" d="M374.013,242.672h-25.951v18.075h22.927v4.853h-22.927v18.777h26.514v4.993h-31.788v-51.691h31.226
			V242.672z"/>
		<path fill="#FFFFFF" d="M538.363,290.284h-0.281l-33.265-40.016v39.102h-5.275v-52.605h0.281l33.195,39.946v-39.032h5.345V290.284
			z"/>
		<path fill="#FFFFFF" d="M707.425,244.149l-3.445,3.868c-3.587-3.728-8.58-6.259-14.629-6.259
			c-12.025,0-20.395,9.213-20.395,21.801c0,12.589,8.369,21.731,20.395,21.731c6.26,0,11.464-2.672,15.051-6.681l3.375,4.009
			c-4.712,5.063-10.971,7.665-18.426,7.665c-15.05,0-25.739-11.322-25.739-26.725c0-15.401,10.689-26.794,25.739-26.794
			C696.876,236.765,702.713,239.438,707.425,244.149z"/>
		<path fill="#FFFFFF" d="M850.818,267.146v22.224h-5.346v-22.153l-19.27-29.467h6.26l15.683,24.052l15.683-24.052h6.26
			L850.818,267.146z"/>
	</g>
	<g>
		<path fill="#FFFFFF" d="M740.211,182.325c0,12.28-8.81,21.089-21.089,21.089c-12.28,0-21.09-8.81-21.09-21.089
			s8.81-21.089,21.09-21.089C731.401,161.236,740.211,170.045,740.211,182.325z"/>
	</g>
</g>
</svg>
